<svg height="512" viewBox="0 0 60 35" width="512" xmlns="http://www.w3.org/2000/svg"><g id="Page-1" fill="none" fill-rule="evenodd"><g id="024---Gas-Storage" fill="rgb(5,158,218)" fill-rule="nonzero"><path id="Shape" d="m13 1.5v2.5h3v-2.5c0-.82842712-.6715729-1.5-1.5-1.5s-1.5.67157288-1.5 1.5z"/><path id="Shape" d="m49 20c.5522847 0 1-.4477153 1-1v-6c0-.5522847-.4477153-1-1-1h-2.85c.9974409 2.5547345 1.1205176 5.3679173.35 8z"/><path id="Shape" d="m31 1.5v2.5h3v-2.5c0-.82842712-.6715729-1.5-1.5-1.5s-1.5.67157288-1.5 1.5z"/><path id="Shape" d="m22 1.5v2.5h3v-2.5c0-.8284271-.6715729-1.49999994-1.5-1.49999994s-1.5.67157284-1.5 1.49999994z"/><path id="Shape" d="m7.42 25.69.22-1.08c.18595443-.9353078 1.00638628-1.609234 1.96-1.61h2.8c.9686161-.0185624 1.811263.6597685 2 1.61l.44 2.39h17.32l.48-2.39c.188737-.9502315 1.0313839-1.6285624 2-1.61h2.8c.9686161-.0185624 1.811263.6597685 2 1.61l.22 1.07c3.3103731-1.8678996 5.352789-5.3790192 5.34-9.18-.0055128-5.7967049-4.7032951-10.4944872-10.5-10.5h-22c-4.78917285-.00056129-8.97187956 3.23958438-10.16830368 7.8769054-1.19642411 4.637321.89663709 9.4966084 5.08830368 11.8130946zm9.83-8.87.42-1.55c.0951284-.3573215.3796707-.6329853.7398273-.7167426.3601566-.0837574.7371373.0380638.9801727.3167426l1 1.18c.1192145.1445003.2796998.2491646.46.3.1194819.0201991.2420607-.0086429.34-.08 0 0 .06-.06 0-.19-.0686247-.2364944-.1768226-.4596524-.32-.66-.2117573-.3338067-.3797967-.6934111-.5-1.07-.3538087-1.3885845.0229686-2.8617838 1-3.91.3493383-.4342717.7303819-.8420553 1.14-1.22l.45-.45 1.41-1.47c.2812356-.29186367.7108309-.3851031 1.0877551-.23608653.3769243.14901657.6266215.51081351.6322449.91608653l.05 2.07v.29c.0871204.5686122.3964502 1.0793661.86 1.42l.29.28c.8375028.7264482 1.5830351 1.5525786 2.22 2.46.6379079.9373225 1.1050963 1.9800328 1.38 3.08.3987487 1.7041816.0335066 3.49752-1 4.91-1.369928 1.6854197-3.4607201 2.617549-5.63 2.51-.7622857-.0049645-1.5211573-.1023418-2.26-.29-1.4093382-.3460366-2.6814556-1.109307-3.65-2.19-1.2614355-1.612792-1.6707208-3.7336339-1.1-5.7zm-12.25.18c-.27594711.0004972-.53983452-.1130554-.72919537-.313778-.18936086-.2007225-.28736193-.4707716-.27080463-.746222.22985425-3.445333 2.51648743-6.41124241 5.79-7.51.2532458-.08511382.5300201-.0653517.768604.05487954s.4191366.33093313.501396.58512046c.1707915.52463816-.1156015 1.0884742-.64 1.26-.95715292.3176119-1.82456719.8593173-2.53 1.58-1.11344326 1.1117166-1.78510106 2.5900745-1.89 4.16-.03682302.5247754-.47393581.9312903-1 .93z"/><path id="Shape" d="m22.46 22.77c.5878172.1526963 1.1926737.2299835 1.8.23 1.5273762.0991269 3.0113406-.531558 4-1.7.6841557-.9542228.9145117-2.1608497.63-3.3-.2174706-.8678436-.5864684-1.6904718-1.09-2.43-.5561827-.7783534-1.2041934-1.4868003-1.93-2.11l-.29-.28c-.7618279-.6904603-1.2424571-1.6374778-1.35-2.66 0-.06 0-.11 0-.16l-.25.24c-.3558935.3099827-.6900173.6441065-1 1-.5605912.5516669-.8050321 1.3489203-.65 2.12.075324.2114149.1760625.4128919.3.6.2586948.3950107.44808.8312731.56 1.29.1633044.7184646-.0473502 1.4708026-.56 2-.588892.5737265-1.427954.8107709-2.23.63-.4924257-.1205189-.9443141-.368885-1.31-.72-.3288158 1.2613909-.0676808 2.6038454.71 3.65.7014274.7937114 1.6301278 1.3523282 2.66 1.6z"/><path id="Shape" d="m59 33h-1v-16c0-1.1045695-.8954305-2-2-2h-4v2h3c.5522847 0 1 .4477153 1 1v15h-17l-1.6-8h-2.8l-1.6 8h-19l-1.6-8h-2.8l-1.6 8h-7c-.55228475 0-1 .4477153-1 1s.44771525 1 1 1h58c.5522847 0 1-.4477153 1-1s-.4477153-1-1-1z"/></g></g></svg>
